<svg width="2911" height="1163" viewBox="0 0 2911 1163" fill="none" xmlns="http://www.w3.org/2000/svg">
<path d="M114.399 34.8692C77.0131 27.8318 13.5291 2.38976 5.63694 56.0567C-0.261719 96.1676 29.7783 125.555 56.7693 150.129C102.491 191.756 149.89 235.746 179.657 290.814C183.163 297.3 202.382 364.328 183.329 359.179C134.358 345.943 82.4912 315.459 43.2094 284.034" stroke="black" stroke-width="8" stroke-linecap="round" stroke-linejoin="round"/>
<path d="M180.504 248.439C210.072 248.439 244.792 254.948 269.209 234.879C276.961 228.507 345.725 173.137 335.031 164.819C324.5 156.629 296.976 161.994 284.464 161.994C256.769 161.994 232.398 162.706 217.229 188.549C180.044 251.902 205.253 325.256 262.146 367.089C302.354 396.654 358.479 388.739 358.479 334.884" stroke="black" stroke-width="8" stroke-linecap="round" stroke-linejoin="round"/>
<path d="M414.414 177.249C414.414 217.552 414.414 257.855 414.414 298.159C414.414 308.666 411.421 354.266 430.234 328.669C459.391 288.995 493.798 246.121 514.983 201.544C519.443 192.16 540.921 129.632 546.623 146.739" stroke="black" stroke-width="8" stroke-linecap="round" stroke-linejoin="round"/>
<path d="M546.623 258.609C559.802 265.069 594.537 288.876 610.468 275.841C628.121 261.398 653.408 223.267 653.408 200.414C653.408 168.58 562.904 226.502 554.816 240.811C518.632 304.829 542.822 351.398 611.033 369.349C641.133 377.27 714.428 376.206 714.428 329.799" stroke="black" stroke-width="8" stroke-linecap="round" stroke-linejoin="round"/>
<path d="M729.683 217.929C729.683 255.125 729.683 292.32 729.683 329.516C729.683 331.895 729.683 349.098 729.683 336.579C729.683 310.362 728.68 283.757 740.983 259.739C772.065 199.054 829.012 169.725 892.402 207.759" stroke="black" stroke-width="8" stroke-linecap="round" stroke-linejoin="round"/>
<path d="M922.913 233.184C883.19 234.773 832.475 241.663 805.393 274.994C783.426 302.031 800.335 346.856 823.756 366.806C875.442 410.835 955.915 360.177 973.763 306.634C979.3 290.022 972.143 237.845 974.045 270.192C976.351 309.38 996.647 340.348 1016.99 372.739C1033.35 398.796 1046.03 426.643 1055.12 385.734" stroke="black" stroke-width="8" stroke-linecap="round" stroke-linejoin="round"/>
<path d="M1111.06 4.35938C1128.78 96.313 1119.64 191.713 1128.86 284.881C1131.89 315.538 1133.99 359.11 1151.74 385.734" stroke="black" stroke-width="8" stroke-linecap="round" stroke-linejoin="round"/>
<path d="M1238.18 284.034C1238.18 334.065 1240.89 384.98 1237.05 434.889C1234.93 462.457 1236.42 541.544 1224.06 516.813C1215.55 499.797 1225.67 462.927 1228.58 445.906C1235.2 407.104 1241.92 367.163 1254.57 329.799C1267.27 292.252 1284.98 239.625 1319.82 215.669C1372.68 179.333 1392.93 277.02 1389.88 312.001C1385.58 361.482 1278.33 328.728 1263.61 299.289" stroke="black" stroke-width="8" stroke-linecap="round" stroke-linejoin="round"/>
<path d="M1426.33 299.289C1463.13 306.904 1523.94 331.542 1552.32 293.074C1565.99 274.542 1572.22 246.852 1567.58 224.144C1561.38 193.847 1474.15 203.775 1457.97 215.104C1426.29 237.277 1395.26 308.591 1434.8 336.014C1463.58 355.97 1504.35 359.967 1538.2 352.964C1556.9 349.094 1560.9 336.245 1573.79 329.799" stroke="black" stroke-width="8" stroke-linecap="round" stroke-linejoin="round"/>
<path d="M1690.75 243.354C1654.39 238.507 1616.43 235.484 1597.24 273.864C1582.35 303.649 1627.1 348.664 1650.07 360.309C1700.24 385.751 1739.72 347.124 1758.83 300.419C1766.35 282.043 1758.79 262.121 1741.6 253.524" stroke="black" stroke-width="8" stroke-linecap="round" stroke-linejoin="round"/>
<path d="M1782.28 258.609C1782.28 345.637 1779.18 433.323 1784.82 520.204C1786.09 539.804 1787.36 559.321 1787.36 578.964C1787.36 592.905 1787.31 551.046 1788.49 537.154C1794.09 471.094 1809.1 397.912 1828.04 334.319C1835.14 310.497 1852.77 271.009 1874.09 256.349C1922.53 223.044 1924.66 292.036 1924.66 329.517C1924.66 363.251 1878.98 361.946 1855.16 358.049C1802.2 349.383 1792.45 326.591 1792.45 278.949" stroke="black" stroke-width="8" stroke-linecap="round" stroke-linejoin="round"/>
<path d="M1975.51 45.0396C1963.51 147.018 1960.25 252.476 1960.25 355.224" stroke="black" stroke-width="8" stroke-linecap="round" stroke-linejoin="round"/>
<path d="M1960.25 304.374C1960.25 323.019 1960.25 341.664 1960.25 360.309" stroke="black" stroke-width="8" stroke-linecap="round" stroke-linejoin="round"/>
<path d="M2016.19 278.949C2045.84 278.949 2092.46 280.676 2092.46 238.269C2092.46 208.962 1994.56 233.787 1980.59 249.569C1937.69 298.03 1935.97 390.46 2002.06 420.199C2040.56 437.523 2089.22 438.815 2130.88 436.584C2154.04 435.343 2148.39 401.959 2148.39 385.734" stroke="black" stroke-width="8" stroke-linecap="round" stroke-linejoin="round"/>
<path d="M2229.75 284.034C2167.21 295.072 2086.02 360.624 2143.31 425.284C2168.93 454.203 2203.39 468.062 2241.62 467.094C2278.73 466.154 2277.98 427.069 2282.86 398.446C2285.71 381.759 2287.84 362.106 2285.41 345.054C2282.62 325.52 2284.45 372.876 2286.54 379.802C2301.71 430.052 2318.59 482.225 2348.4 525.854C2373.94 563.221 2373.15 549.492 2382.3 512.859" stroke="black" stroke-width="8" stroke-linecap="round" stroke-linejoin="round"/>
<path d="M2428.07 350.139C2427.91 371.969 2440.89 457.894 2412.53 474.439C2386.22 489.785 2436.03 382.645 2439.37 377.259C2469.47 328.757 2516.09 229.161 2578.36 213.974C2594.29 210.089 2590.79 259.503 2590.79 268.779" stroke="black" stroke-width="8" stroke-linecap="round" stroke-linejoin="round"/>
<path d="M2529.77 390.819C2559.9 401.581 2687.4 441.338 2687.4 373.304C2687.4 323.351 2634.14 333.44 2596.16 335.166C2536.82 337.863 2446.6 440.856 2510.56 491.389C2531.85 508.208 2728.08 559.927 2728.08 512.859" stroke="black" stroke-width="8" stroke-linecap="round" stroke-linejoin="round"/>
<path d="M1878.89 634.898C1964.57 632.643 2049.54 623.316 2134.84 615.688C2157.41 613.669 2165.76 615.592 2138.23 609.473" stroke="black" stroke-width="8" stroke-linecap="round" stroke-linejoin="round"/>
<path d="M2061.95 492.519C2060.87 581.191 2046.7 668.469 2046.7 756.938" stroke="black" stroke-width="8" stroke-linecap="round" stroke-linejoin="round"/>
<path d="M2158.57 665.408C2153.34 708.985 2143.98 753.564 2130.32 795.358C2128.24 801.691 2123.54 813.698 2123.54 797.9C2123.54 749.944 2138.69 698.937 2150.66 652.978C2158.23 623.893 2159.49 594.218 2191.9 594.218C2217.81 594.218 2235.77 604.574 2260.26 609.473" stroke="black" stroke-width="8" stroke-linecap="round" stroke-linejoin="round"/>
<path d="M2260.27 634.898C2260.27 665.597 2260.27 696.295 2260.27 726.993C2260.27 746.129 2253.87 778.806 2263.66 796.488C2290.1 844.293 2379.51 751.651 2392.76 734.621C2416.15 704.549 2428.07 654.192 2428.07 615.688C2428.07 608.335 2422.45 609.219 2417.62 613.146C2395.49 631.126 2387.43 674.041 2379.76 699.308C2358.23 770.283 2339.36 844.635 2326.37 917.68C2320.35 951.535 2308.9 1004.16 2276.65 1024.18C2235 1050.03 2216.87 957.19 2215.35 937.173C2209.56 860.979 2237.08 792.447 2280.61 731.513" stroke="black" stroke-width="8" stroke-linecap="round" stroke-linejoin="round"/>
<path d="M2458.58 680.663C2482.25 717.151 2475.9 770.648 2473.55 812.873C2469.74 881.511 2468.75 810.235 2468.75 782.363" stroke="black" stroke-width="8" stroke-linecap="round" stroke-linejoin="round"/>
<path d="M2529.77 701.003C2529.77 750.158 2529.77 799.313 2529.77 848.468C2529.77 870.597 2529.38 804.2 2530.05 782.081C2530.68 761.511 2530.43 675.851 2552.65 665.973C2586.8 650.796 2608.74 756.053 2610.56 774.736C2611.74 786.776 2607.26 887.431 2621.3 838.298" stroke="black" stroke-width="8" stroke-linecap="round" stroke-linejoin="round"/>
<path d="M2768.76 726.428C2707.89 668.458 2661.98 730.209 2661.98 796.488C2661.98 816.287 2672.06 838.587 2691.36 847.903C2704.48 854.237 2764.46 863.602 2774.98 849.033C2788.07 830.91 2793.63 792.905 2794.19 771.063C2794.34 764.991 2794.19 705.364 2794.19 738.293C2794.19 785.54 2786.47 830.743 2779.22 877.283C2770.82 931.129 2775.53 981.49 2758.59 1033.79C2749.03 1063.34 2744.47 1091.42 2721.87 1114.02C2709.76 1126.13 2684.74 1158.65 2667.06 1158.65C2614.11 1158.65 2593.3 1122.22 2567.62 1078.42C2561.05 1067.21 2559.97 1042.08 2560.28 1029.27C2561.56 976.731 2632.09 942.281 2671.02 922.2C2733.13 890.163 2802.05 873.624 2863.68 841.406C2877.58 834.141 2891.42 827.921 2906.06 823.043" stroke="black" stroke-width="8" stroke-linecap="round" stroke-linejoin="round"/>
<path d="M2845.04 975.593C2856.36 915.211 2863.75 976.19 2850.12 969.378C2837.29 962.96 2839.95 935.179 2839.95 960.338" stroke="black" stroke-width="8" stroke-linecap="round" stroke-linejoin="round"/>
<path d="M2239.92 284.034C2255.02 325.796 2272.73 392.403 2307.72 423.024C2315.75 430.044 2294.15 406.017 2290.77 395.904" stroke="black" stroke-width="8" stroke-linecap="round" stroke-linejoin="round"/>
</svg>
