<svg xmlns="http://www.w3.org/2000/svg" viewBox="0 0 997.89 964.28"><title>FeatureCreature-Logo</title><g id="Layer_1" data-name="Layer 1"><line x1="0.09" y1="729.89" x2="0.09" y2="728.74" style="fill:none;stroke:#000;stroke-miterlimit:10;stroke-width:0.829895725119656px"/></g><g id="Layer_4" data-name="Layer 4"><rect x="0.7" y="0.61" width="996.58" height="963.05" style="fill:#fff"/><path d="M996.66,1.23V963.05H1.31V1.23H996.66M997.89,0H.09V964.28h997.8V0Z"/></g><g id="Layer_5" data-name="Layer 5"><path d="M784.27,308c-7.93-11.7-23.91-19.75-41.79-24.57-95.6-25.79-188.4-25.79-238.6-25.79s-145,0-240.57,25.82c-17.79,4.8-33.69,12.77-41.68,24.36a29.68,29.68,0,0,0-5.28,20.06C226,432.59,358.88,699.91,502.88,699.09s276.9-266.54,286.53-371.28A29.68,29.68,0,0,0,784.27,308ZM394,447.56c-83.79,0-151.72-34.47-151.72-77,0-15.08,8.56-29.16,23.34-41L478,434.68C453.94,442.82,425,447.56,394,447.56Z" style="stroke:#fff;stroke-miterlimit:10;stroke-width:0.9050447940826416px"/><path d="M478,434.68c-24.05,8.14-52.95,12.88-84,12.88-83.79,0-151.72-34.47-151.72-77,0-15.08,8.56-29.16,23.34-41Z" style="fill:red;stroke:aqua;stroke-miterlimit:10;stroke-width:0.9050447940826416px"/><path d="M761.69,370.35c0,42.51-67.92,77-151.71,77-30.36,0-58.64-4.52-82.36-12.31L739.41,330.16C753.54,341.87,761.69,355.62,761.69,370.35Z" style="fill:red;stroke:aqua;stroke-miterlimit:10;stroke-width:0.9050447940826416px"/><path d="M478,434.68c-24.05,8.14-52.95,12.88-84,12.88-83.79,0-151.72-34.47-151.72-77,0-15.08,8.56-29.16,23.34-41Z" style="fill:none;stroke:#000;stroke-miterlimit:10;stroke-width:0.9050447940826416px"/><path d="M761.69,370.35c0,42.51-67.92,77-151.71,77-30.36,0-58.64-4.52-82.36-12.31L739.41,330.16C753.54,341.87,761.69,355.62,761.69,370.35Z" style="fill:none;stroke:#000;stroke-miterlimit:10;stroke-width:0.9050447940826416px"/><line x1="485.88" y1="438.59" x2="477.99" y2="434.68" style="fill:none;stroke:#000;stroke-miterlimit:10;stroke-width:1.14677823407645px"/><line x1="527.62" y1="435.01" x2="521.01" y2="438.28" style="fill:none;stroke:#000;stroke-miterlimit:10;stroke-width:1.14677823407645px"/><text transform="matrix(1.11, -0.32, 0.28, 0.96, 197.44, 207.84)" style="font-size:172.4758758544922px;stroke:#000;stroke-miterlimit:10;font-family:LiberationSerif-Italic, Liberation Serif;font-style:italic">F</text><text transform="matrix(1.14, -0.18, 0.16, 0.99, 311.84, 175.87)" style="font-size:172.4758758544922px;stroke:#000;stroke-miterlimit:10;font-family:LiberationSerif-Italic, Liberation Serif;font-style:italic">e</text><text transform="matrix(1.16, -0.07, 0.06, 1, 396.71, 161.86)" style="font-size:172.4758758544922px;stroke:#000;stroke-miterlimit:10;font-family:LiberationSerif-Italic, Liberation Serif;font-style:italic">a</text><text transform="matrix(1.16, 0.02, -0.02, 1, 494.32, 156.87)" style="font-size:172.4758758544922px;stroke:#000;stroke-miterlimit:10;font-family:LiberationSerif-Italic, Liberation Serif;font-style:italic">t</text><text transform="matrix(1.15, 0.12, -0.1, 1, 547.69, 156.92)" style="font-size:172.4758758544922px;stroke:#000;stroke-miterlimit:10;font-family:LiberationSerif-Italic, Liberation Serif;font-style:italic">u</text><text transform="matrix(1.14, 0.23, -0.2, 0.98, 644.46, 166.97)" style="font-size:172.4758758544922px;stroke:#000;stroke-miterlimit:10;font-family:LiberationSerif-Italic, Liberation Serif;font-style:italic">r</text><text transform="matrix(1.11, 0.33, -0.28, 0.96, 711.26, 179.51)" style="font-size:172.4758758544922px;stroke:#000;stroke-miterlimit:10;font-family:LiberationSerif-Italic, Liberation Serif;font-style:italic">e</text><text transform="matrix(1.18, 0.35, -0.31, 0.96, 164.5, 801.31)" style="font-size:152px;stroke:#000;stroke-miterlimit:10;stroke-width:0.9991181492805481px;font-family:LiberationSerif-Italic, Liberation Serif;font-style:italic">C</text><text transform="matrix(1.21, 0.21, -0.19, 0.99, 292.03, 837.38)" style="font-size:152px;stroke:#000;stroke-miterlimit:10;stroke-width:0.9991181492805481px;font-family:LiberationSerif-Italic, Liberation Serif;font-style:italic">r</text><text transform="matrix(1.23, 0.11, -0.11, 1, 362.05, 849.54)" style="font-size:152px;stroke:#000;stroke-miterlimit:10;stroke-width:0.9991181492805481px;font-family:LiberationSerif-Italic, Liberation Serif;font-style:italic">e</text><text transform="matrix(1.24, -0.01, -0.01, 1, 450.84, 857.52)" style="font-size:152px;stroke:#000;stroke-miterlimit:10;stroke-width:0.9991181492805481px;font-family:LiberationSerif-Italic, Liberation Serif;font-style:italic">a</text><text transform="matrix(1.23, -0.1, 0.06, 1, 549.86, 855.81)" style="font-size:152px;stroke:#000;stroke-miterlimit:10;stroke-width:0.9991181492805481px;font-family:LiberationSerif-Italic, Liberation Serif;font-style:italic">t</text><text transform="matrix(1.22, -0.2, 0.15, 0.99, 607.24, 851.72)" style="font-size:152px;stroke:#000;stroke-miterlimit:10;stroke-width:0.9991181492805481px;font-family:LiberationSerif-Italic, Liberation Serif;font-style:italic">u</text><text transform="matrix(1.2, -0.33, 0.25, 0.96, 706.56, 834.51)" style="font-size:152px;stroke:#000;stroke-miterlimit:10;stroke-width:0.9991181492805481px;font-family:LiberationSerif-Italic, Liberation Serif;font-style:italic">r</text><text transform="matrix(1.16, -0.44, 0.34, 0.93, 777.01, 815.76)" style="font-size:152px;stroke:#000;stroke-miterlimit:10;stroke-width:0.9991181492805481px;font-family:LiberationSerif-Italic, Liberation Serif;font-style:italic">e</text></g></svg>