<svg xmlns="http://www.w3.org/2000/svg" viewBox="0 0 646.83 772.45"><title>FeatureCreature</title><g id="background"><rect width="646.83" height="772.45" style="fill:#052d6a"/></g><g id="FC"><text transform="translate(38.65 555.17)" style="font-size:545.74365234375px;fill:#b70019;font-family:Candara-Bold, Candara;font-weight:700">FC</text></g><g id="blob_body" data-name="blob body"><path d="M443.79,363.53S505.18,394,504.08,412c-2.18,35.88-52,57.47-52,57.47S517.52,537,481,561.83c-13.57,9.21-90.16-49.56-90.16-49.56s-11.28,85.06-34.41,88.07c-26.25,3.41-46.23-80-46.23-80S221.68,579.76,202.76,573c-23.53-8.44,33.93-113.15,33.93-113.15s-76.79-38.73-75.52-59.69,79.92-29.21,79.92-29.21-49.43-65.69-36.52-91.38c12.28-24.46,88.53,10.39,88.53,10.39s22.15-67.78,52-65c30.88,2.91,44.66,66.56,44.66,66.56s72.84-31.82,82-9C479.62,302,443.79,363.53,443.79,363.53Z" transform="translate(3.83 4.45)" style="fill:#3fa9f5;stroke:#000;stroke-linejoin:bevel;stroke-width:3px"/></g><g id="shield"><path d="M365.79,385.53s33.54,48.54,82.08,0c0,0,47.92,47,81.92,0,0,0,.17,195.85-81.92,195.93S365.79,385.53,365.79,385.53Z" transform="translate(3.83 4.45)" style="fill:#052d6a;stroke:#fff;stroke-miterlimit:10;stroke-width:2px"/></g><g id="glasses"><g id="Layer_5" data-name="Layer 5"><path d="M341.79,338.53s13,41,46,41c31,0,38-46,38-46" transform="translate(3.83 4.45)" style="fill:#333"/><path d="M415.79,336.53" transform="translate(3.83 4.45)" style="fill:none;stroke:#000;stroke-linecap:round;stroke-linejoin:round;stroke-width:3.59374761581421px"/><path d="M341.79,338.53s-11,42-44,41c-18.2-.55-36-27-41-43" transform="translate(3.83 4.45)" style="fill:#333"/></g><path d="M215.52,330.23c136.27,20.3,246.11-1.94,246.11-1.94" transform="translate(3.83 4.45)" style="fill:none;stroke:#000;stroke-linejoin:bevel;stroke-width:3px"/><path d="M282.29,450c1,3.91,1.65,34.88,37,49,24.52,9.8,52.6.18,59-2" transform="translate(3.83 4.45)" style="fill:none;stroke:#000;stroke-linejoin:bevel;stroke-width:3.00661950240309px"/><line x1="286.12" y1="454.48" x2="299.12" y2="451.48" style="fill:none;stroke:#000;stroke-linejoin:bevel;stroke-width:3.00661950240309px"/><line x1="286.12" y1="454.48" x2="277.12" y2="456.48" style="fill:none;stroke:#000;stroke-linejoin:bevel;stroke-width:3.00661950240309px"/></g></svg>