<svg id="Layer_1" data-name="Layer 1" xmlns="http://www.w3.org/2000/svg" viewBox="0 0 800 600"><title>NightOwl-0.5</title><path d="M280.5,142.5H420.59c37.4,10.33,62.42,44.17,60.91,80-1.25,29.59-20.43,56.49-49,69H279.24c-1.87-.57-46.14-15-55.6-55.6C215.16,199.53,238.25,157.86,280.5,142.5Z" style="fill:none;stroke:#000;stroke-miterlimit:10;stroke-width:1.03499079854979px"/><circle cx="312.13" cy="190.41" r="27" style="fill:none;stroke:#000;stroke-miterlimit:10;stroke-width:1.03499079854979px"/><circle cx="395.28" cy="189.72" r="27" transform="translate(-38.68 127.09) rotate(-17.43)" style="fill:none;stroke:#000;stroke-miterlimit:10;stroke-width:1.03499079854979px"/><circle cx="312.16" cy="189.67" r="9.51" style="fill:none;stroke:#000;stroke-miterlimit:10;stroke-width:0.36468425282565px"/><circle cx="395.75" cy="189.84" r="9.51" style="fill:none;stroke:#000;stroke-miterlimit:10;stroke-width:0.36468425282565px"/><polygon points="352.55 262.35 371.51 229.5 333.58 229.5 352.55 262.35" style="fill:none;stroke:#000;stroke-miterlimit:10;stroke-width:0.159736308607625px"/><path d="M332.74,163l-89-53s23,49,62,53Z" style="fill:none;stroke:#000;stroke-miterlimit:10;stroke-width:0.159736308607625px"/><path d="M371.71,162.65l89-53s-23,49-62,53Z" style="fill:none;stroke:#000;stroke-miterlimit:10;stroke-width:0.159736308607625px"/><path d="M430.53,338.47h0Z" style="fill:none;stroke:#000;stroke-miterlimit:10;stroke-width:0.159668380396972px"/><path d="M477.5,385.45a47,47,0,0,1-46.54,47v.06H336.39v0a47,47,0,0,1,0-93.94v0H431A47,47,0,0,1,477.5,385.45Z" style="fill:none;stroke:#000;stroke-miterlimit:10;stroke-width:0.159668380396972px"/><circle cx="347.5" cy="370.5" r="17.5" style="fill:none;stroke:#000;stroke-miterlimit:10;stroke-width:0.159668380396972px"/><circle cx="423.5" cy="368.5" r="17.5" style="fill:none;stroke:#000;stroke-miterlimit:10;stroke-width:0.159668380396972px"/><path d="M706,309c0,26.46-16.57,47.9-37,47.9H594.43c-20.58,0-37.26-21.56-37.26-48.16s16.68-48.16,37.26-48.16a26.87,26.87,0,0,1,3.6.23h70.88v.28H669C689.43,261.1,706,282.55,706,309Z" style="fill:#754c24"/><circle cx="603.07" cy="297.1" r="17.9" style="fill:#fcee21"/><polygon points="635.5 336.18 646.76 316.68 624.24 316.68 635.5 336.18" style="fill:#1a1a1a"/><circle cx="665.37" cy="297.82" r="17.31" style="fill:#fcee21"/><circle cx="603.52" cy="296.71" r="6.5"/><circle cx="664.89" cy="297.11" r="6"/><path d="M631.11,281.52c-11.94-7.63-53.22-31.3-84.91-34.82s18.19,27.19,37.76,28.95S631.11,281.52,631.11,281.52Z" style="fill:#603813;stroke:#000;stroke-miterlimit:10;stroke-width:0.25px"/><path d="M638.17,282.19c12.07-7.4,53.79-30.3,85.55-33.22s-18.71,26.85-38.3,28.24S638.17,282.19,638.17,282.19Z" style="fill:#603813;stroke:#000;stroke-miterlimit:10;stroke-width:0.25px"/></svg>