<svg xmlns="http://www.w3.org/2000/svg" xmlns:xlink="http://www.w3.org/1999/xlink" viewBox="0 0 979.24 800"><defs><linearGradient id="linear-gradient" x1="396.82" y1="314.51" x2="522.17" y2="314.51" gradientTransform="matrix(1, -0.01, 0.01, 1, -2.69, 3.99)" gradientUnits="userSpaceOnUse"><stop offset="0" stop-color="#fff"/><stop offset="1"/></linearGradient></defs><title>FeatureCreature-Scarier</title><g id="Layer_1" data-name="Layer 1"><rect width="800" height="800" style="fill:#013d5b"/><line x1="978.83" y1="531.89" x2="978.83" y2="530.74" style="fill:none;stroke:#000;stroke-miterlimit:10;stroke-width:0.829895725119656px"/></g><g id="Layer_3" data-name="Layer 3"><path d="M348.23,167l-3.06,66.15q-105.9-4.83-191.77-4.83,4.41,51.66,4.42,114.49,65.49,0,148.66-3v62.53q-84.18-2.71-148.66-2.72,0,85.49,3.05,160.71H67.19q4.41-91.23,4.42-205.72,0-110-4.42-187.59Z" transform="translate(0 0)" style="fill:#a3282b;stroke:#f9c606;stroke-miterlimit:10;stroke-width:8px"/><path d="M749,488.7l-5.77,69.48a454.89,454.89,0,0,1-95,10.27q-116.41,0-177.34-57.24T409.92,372.1q0-84.89,64.66-147.72t177.34-62.83a350.89,350.89,0,0,1,78.4,8.46l-11.88,69.78q-40.05-11.47-76.7-11.48-68.91,0-102.51,38.82t-33.6,94.4q0,56.79,39.88,98.48t111.84,41.68Q699.43,501.69,749,488.7Z" transform="translate(0 0)" style="fill:#a3282b;stroke:#f9c606;stroke-miterlimit:10;stroke-width:8px"/></g><g id="Layer_2" data-name="Layer 2"><path d="M240.27,443.19a37,37,0,0,1-.87,32.65c-5.93,11-11.72,23.38-22.69,21.23,4.53-17.57-.1-33.89-3.18-35.92Q207,456.89,178,498.71a72.71,72.71,0,0,1-1-13.06c.27-24.51,12.8-42.53,17.9-49a67.65,67.65,0,0,1,32.4-22.87l37.53-14.63L273,422.92Z" transform="translate(0 0)" style="fill:#ba2629;stroke:#000;stroke-miterlimit:10;stroke-width:3px"/><path d="M588.83,444.37q-3.84,8.11-8.12,16.32c-21.86,41.94-49,78.84-77.05,106.93h0c-20.09,20.14-40.61,35.75-59.94,45.44-27.87-2.52-60.57-21-91.73-50.46-27.79-26.25-54.35-61.17-75.1-101.13q-7.83-15.08-13.93-29.79h0c-35.09-84.5-27.37-156.74,19.93-170.53l.4-.11h0l6.51-1.41h0c49.48-10.4,108.07-16.53,170.9-16.77a926.37,926.37,0,0,1,115,6.52.07.07,0,0,1,.06,0c2.14.26,4.27.52,6.39.8h.07q.71.13,1.41.3C634.66,261.78,634.54,347.91,588.83,444.37Z" transform="translate(0 0)" style="fill:#ba2629;stroke:#000;stroke-miterlimit:10;stroke-width:3px"/><path d="M586.86,399.83l45,28c2.75-.6,29.81-6.07,47.49,11.49,13,12.92,12.76,30.42,13,42,.56,26.81-12.71,45.45-17,51q-17.31-74.87-29-74-9.27.69-15,49c-3.67-18.33-9.49-32.19-13.16-50.52l-46-26.81" transform="translate(0 0)" style="fill:#ba2629;stroke:#000;stroke-miterlimit:10;stroke-width:3px"/><path d="M283.78,263.45S261.16,239.32,315.54,155c0,0,11.62,85.5,34.18,98" transform="translate(0 0)" style="fill:#ba2629;stroke:#000;stroke-miterlimit:10;stroke-width:3px"/><path d="M575.81,253.82s17.11-13.93-47.49-115c0,0-4.09,88.33-21.7,108.5" transform="translate(0 0)" style="fill:#ba2629;stroke:#000;stroke-miterlimit:10;stroke-width:3px"/><path d="M386.64,342.72c-2.78,17.43-28.38,30.85-59.39,30.48-32.72-.39-59.06-16-58.84-34.8.17-14.38,15.8-26.51,37.78-31.25Z" transform="translate(0 0)"/><path d="M387.09,342.92a13.83,13.83,0,0,1-.19,1.44c-.14.56-.3,1-.44,1.56a23.61,23.61,0,0,1-1.19,2.95,28.29,28.29,0,0,1-3.42,5.33,33.58,33.58,0,0,1-4.42,4.5,43.74,43.74,0,0,1-5.06,3.74,70.6,70.6,0,0,1-23.2,9.11,101.06,101.06,0,0,1-24.84,2,94.82,94.82,0,0,1-24.56-4.18,71.16,71.16,0,0,1-11.55-4.74,51.27,51.27,0,0,1-10.35-7,31.18,31.18,0,0,1-7.64-9.86,22.47,22.47,0,0,1-1.86-6l-.19-1.57-.05-1.57c.05-1.05.13-2.1.26-3.14a24.25,24.25,0,0,1,5.29-11.25,39.66,39.66,0,0,1,9.38-8.19,61.33,61.33,0,0,1,11.14-5.57A88.93,88.93,0,0,1,306.15,307h.06l.05,0,80.38,35.74Zm-.79-.35-80.18-35.26h.11a87.25,87.25,0,0,0-11.88,3.55,60.5,60.5,0,0,0-11,5.58,39,39,0,0,0-9.24,8.12,23.82,23.82,0,0,0-5.13,11q-.18,1.53-.24,3.06l.06,1.53.18,1.52a21.77,21.77,0,0,0,1.85,5.83,30.59,30.59,0,0,0,7.52,9.63A50.44,50.44,0,0,0,288.55,364,69.68,69.68,0,0,0,300,368.64a94.08,94.08,0,0,0,24.36,4.05A99.63,99.63,0,0,0,349,370.61a69.7,69.7,0,0,0,22.83-9.06,41.92,41.92,0,0,0,4.92-3.67A33.27,33.27,0,0,0,381,353.5a26.12,26.12,0,0,0,3.26-5.12,23.49,23.49,0,0,0,1.12-2.81l.4-1.44a5.89,5.89,0,0,1,.36-1.13Z" transform="translate(0 0)"/><path d="M385.43,341.48c-2.41,14.77-24.69,26.13-51.68,25.81-28.47-.33-51.41-13.54-51.22-29.5.15-12.19,13.75-22.46,32.87-26.48Z" transform="translate(0 0)" style="fill:#e6e6e6"/><path d="M528.9,338.87c.24,19.57-27.16,35.76-61.19,36.17s-61.82-15.12-62.06-34.68c0-.58,0-1.16.05-1.72l30.19-14,24.79-11.47L479,304.74C507.23,307.63,528.68,321.69,528.9,338.87Z" transform="translate(0 0)" style="stroke:#000;stroke-miterlimit:10;stroke-width:1.15234247129449px"/><path d="M514.28,339c.16,17-23.65,31-53.18,31.24S407.49,357,407.32,340a14.74,14.74,0,0,1,.05-1.49l26.22-12,21.55-9.9L471,309.28C495.55,311.85,514.13,324.1,514.28,339Z" transform="translate(0 0)" style="fill:#e6e6e6"/><path d="M333.46,319.37a13.5,13.5,0,1,0,24.18,10.08" transform="translate(0 0)" style="fill:#ed1c24;stroke:#000;stroke-linejoin:round;stroke-width:0.730387087660488px"/><path d="M460.8,326.27a13.5,13.5,0,0,1-27,.34l22.42-10.46A13.46,13.46,0,0,1,460.8,326.27Z" transform="translate(0 0)" style="fill:#ed1c24;stroke:#000;stroke-miterlimit:10;stroke-width:0.730387087660488px"/><path d="M582.88,444.31" transform="translate(0 0)" style="fill:none;stroke:#000;stroke-miterlimit:10;stroke-width:0.643313413072823px"/><path d="M261.51,187.19" transform="translate(0 0)" style="stroke:#000;stroke-miterlimit:10;stroke-width:0.829895725119656px"/><path d="M506.1,479.05" transform="translate(0 0)" style="fill:#fff;stroke:#000;stroke-miterlimit:10;stroke-width:0.850076123296899px"/><line x1="397.06" y1="341.73" x2="521.95" y2="287.27" style="fill:url(#linear-gradient)"/><polygon points="397.06 341.73 520.75 284.52 523.15 290.02 397.06 341.73"/><polygon points="390.92 344.02 289.52 303.63 291.89 298.12 390.92 344.02"/><path d="M497.81,425.67c0,15.58-11.8,30.16-30.64,40.49V433.05c12.38-2.33,22.83-5.33,30.61-8.78C497.8,424.73,497.81,425.19,497.81,425.67Z" transform="translate(0 0)" style="fill:#e6e6e6;stroke:#000;stroke-miterlimit:10;stroke-width:1.16533952918822px"/><path d="M467.17,433.05v33.11A121,121,0,0,1,434.45,478v-40.7A307.55,307.55,0,0,0,467.17,433.05Z" transform="translate(0 0)" style="fill:#e6e6e6;stroke:#000;stroke-miterlimit:10;stroke-width:1.16533952918822px"/><path d="M434.45,437.29V478a152.14,152.14,0,0,1-32.09,3.35h-.67V438.53h.67C413.53,438.53,424.29,438.1,434.45,437.29Z" transform="translate(0 0)" style="fill:#e6e6e6;stroke:#000;stroke-miterlimit:10;stroke-width:1.16533952918822px"/><path d="M401.69,438.53v42.81h-1.44A169.67,169.67,0,0,1,369,478.06V437.19C379.3,438,390.29,438.5,401.69,438.53Z" transform="translate(0 0)" style="fill:#e6e6e6;stroke:#000;stroke-miterlimit:10;stroke-width:1.16533952918822px"/><path d="M369,437.19v40.87a132.37,132.37,0,0,1-32.36-10.82V432.87A304.67,304.67,0,0,0,369,437.19Z" transform="translate(0 0)" style="fill:#e6e6e6;stroke:#000;stroke-miterlimit:10;stroke-width:1.16533952918822px"/><path d="M336.61,432.87v34.37C316,457,303,442.09,303,425.67a29,29,0,0,1,.17-3.24C311,426.58,322.52,430.14,336.61,432.87Z" transform="translate(0 0)" style="fill:#e6e6e6;stroke:#000;stroke-miterlimit:10;stroke-width:1.16533952918822px"/></g></svg>