<svg id="Layer_1" data-name="Layer 1" xmlns="http://www.w3.org/2000/svg" viewBox="0 0 1332 426"><title>logoHost</title><path d="M1066.67,213c-7.12,36.93,3.14,75.82-5.65,112.39a251.51,251.51,0,0,1,68.34-151.84c4.88,2.48,6.48,8.55,7.51,13.93A854,854,0,0,1,1151,303.7l3.83-4.39" style="fill:#fff;stroke:#000;stroke-miterlimit:10;stroke-width:6px"/><path d="M778.76,47.21l5.65,206.66c1.34,49.18,2.52,99.53-13,146.21-.47,1.4-1.14,3-2.55,3.38s-3-1.75-1.71-2.51" style="fill:#fff;stroke:#000;stroke-miterlimit:10;stroke-width:6px"/><path d="M783.57,236.71a600.08,600.08,0,0,0,62.87-26.42" style="fill:#fff;stroke:#000;stroke-miterlimit:10;stroke-width:6px"/><path d="M880.54,60.82A882.26,882.26,0,0,0,866.72,359" style="fill:#fff;stroke:#000;stroke-miterlimit:10;stroke-width:6px"/><path d="M954.49,230.85a178.48,178.48,0,0,0-30.59-46.58c-1.42-1.56-3.17-3.22-5.28-3.09-1.79.12-3.21,1.51-4.44,2.83a236.68,236.68,0,0,0-32.61,44.73c-5.26,9.34-10,19.33-10.85,30-2.24,27.08,23.2,51.65,50.35,52.9s52.77-17.23,64.93-41.54,12.41-53.21,6.09-79.64c-16.37,24.49-11.15,58.13,3.06,83.93s36,46.41,54.19,69.61l2.26-8.54" style="fill:#fff;stroke:#000;stroke-miterlimit:10;stroke-width:6px"/><path d="M1208.68,57.84q-4.37,160.83-16.71,321.33" style="fill:#fff;stroke:#000;stroke-miterlimit:10;stroke-width:6px"/><path d="M1291.67,181.33a1139.77,1139.77,0,0,0-91.79,114.36c-.88,1.25-1.8,2.67-1.59,4.19s1.39,2.53,2.51,3.48a284.64,284.64,0,0,0,106.76,56.89" style="fill:#fff;stroke:#000;stroke-miterlimit:10;stroke-width:6px"/><g id="Layer_2" data-name="Layer 2"><text transform="translate(39.54 294.82) scale(0.8 1)" style="font-size:309px;font-family:CourierNewPSMT, Courier New;letter-spacing:-0.0350017162316948em">Local</text><text transform="translate(39.54 294.82) scale(0.8 1)" style="font-size:309px;fill:#231f20;font-family:CourierNewPSMT, Courier New;letter-spacing:-0.0350017162316948em">Local</text><text transform="translate(39.54 294.82) scale(0.8 1)" style="font-size:309px;fill:#231f20;font-family:CourierNewPSMT, Courier New;letter-spacing:-0.0350017162316948em">Local</text><text transform="translate(39.54 294.82) scale(0.8 1)" style="font-size:309px;fill:#231f20;font-family:CourierNewPSMT, Courier New;letter-spacing:-0.0350017162316948em">Local</text><text transform="translate(39.54 294.82) scale(0.8 1)" style="font-size:309px;fill:#231f20;font-family:CourierNewPSMT, Courier New;letter-spacing:-0.0350017162316948em">Local</text><text transform="translate(39.54 294.82) scale(0.8 1)" style="font-size:309px;fill:#231f20;font-family:CourierNewPSMT, Courier New;letter-spacing:-0.0350017162316948em">Local</text><text transform="translate(39.54 294.82) scale(0.8 1)" style="font-size:309px;fill:#231f20;font-family:CourierNewPSMT, Courier New;letter-spacing:-0.0350017162316948em">Local</text><text transform="translate(39.54 294.82) scale(0.8 1)" style="font-size:309px;fill:#231f20;font-family:CourierNewPSMT, Courier New;letter-spacing:-0.0350017162316948em">Local</text><text transform="translate(39.54 294.82) scale(0.8 1)" style="font-size:309px;fill:#231f20;font-family:CourierNewPSMT, Courier New;letter-spacing:-0.0350017162316948em">Local</text></g></svg>